<svg xmlns="http://www.w3.org/2000/svg" xmlns:xlink="http://www.w3.org/1999/xlink" width="500" zoomAndPan="magnify" viewBox="0 0 375 374.999991" height="500" preserveAspectRatio="xMidYMid meet" version="1.0"><defs><g/><clipPath id="e847b28358"><path d="M 147.03125 151.550781 L 180.578125 151.550781 L 180.578125 292.488281 L 147.03125 292.488281 Z M 147.03125 151.550781 " clip-rule="nonzero"/></clipPath></defs><g fill="#000000" fill-opacity="1"><g transform="translate(164.365911, 224.016903)"><g><path d="M 6.875 -26.375 C 6.875 -9.25 27.875 2.5 58.5 2.5 C 83.5 2.5 108.625 -9.25 108.625 -34.75 C 108.625 -86.5 17.625 -60 17.625 -94.375 C 17.625 -114.25 32.625 -124.996094 56.25 -124.996094 C 77 -124.996094 95.875 -114.75 99.5 -97.375 C 103.125 -98.625 104.5 -101.75 104.5 -105.625 C 104.5 -121.5 78.25 -127.496094 58.375 -127.496094 C 35 -127.496094 8.75 -118.125 8.75 -93.75 C 8.75 -44.125 99.625 -78 99.625 -31.25 C 99.625 -10.625 80.125 0 58.5 0 C 36.5 0 16.5 -13.75 16.5 -27.25 C 16.5 -31.125 17.875 -34.25 21.5 -35.5 C 19.75 -37 17.875 -37.625 16.125 -37.625 C 11.25 -37.625 6.875 -33 6.875 -26.375 Z M 6.875 -26.375 "/></g></g></g><g clip-path="url(#e847b28358)"><path fill="#f2eee3" d="M 147.03125 151.550781 L 180.777344 151.550781 L 180.777344 292.347656 L 147.03125 292.347656 Z M 147.03125 151.550781 " fill-opacity="1" fill-rule="nonzero"/></g><g fill="#000000" fill-opacity="1"><g transform="translate(144.520186, 259.260072)"><g><path d="M 3.15625 0 C 3.0625 0 2.976562 -0.03125 2.90625 -0.09375 C 2.84375 -0.15625 2.8125 -0.234375 2.8125 -0.328125 L 2.8125 -19.015625 C 2.8125 -19.109375 2.84375 -19.1875 2.90625 -19.25 C 2.976562 -19.3125 3.0625 -19.34375 3.15625 -19.34375 L 3.984375 -19.34375 C 4.160156 -19.34375 4.289062 -19.269531 4.375 -19.125 L 14.296875 -3.046875 C 14.304688 -2.984375 14.328125 -2.957031 14.359375 -2.96875 C 14.398438 -2.976562 14.421875 -3.007812 14.421875 -3.0625 L 14.421875 -19.015625 C 14.421875 -19.109375 14.453125 -19.1875 14.515625 -19.25 C 14.585938 -19.3125 14.671875 -19.34375 14.765625 -19.34375 L 15.5625 -19.34375 C 15.65625 -19.34375 15.734375 -19.3125 15.796875 -19.25 C 15.859375 -19.1875 15.890625 -19.109375 15.890625 -19.015625 L 15.890625 -0.328125 C 15.890625 -0.234375 15.859375 -0.15625 15.796875 -0.09375 C 15.734375 -0.03125 15.65625 0 15.5625 0 L 14.734375 0 C 14.546875 0 14.414062 -0.0703125 14.34375 -0.21875 L 4.421875 -16.328125 C 4.398438 -16.390625 4.367188 -16.414062 4.328125 -16.40625 C 4.296875 -16.394531 4.28125 -16.363281 4.28125 -16.3125 L 4.28125 -0.328125 C 4.28125 -0.234375 4.25 -0.15625 4.1875 -0.09375 C 4.125 -0.03125 4.046875 0 3.953125 0 Z M 3.15625 0 "/></g></g></g><g fill="#000000" fill-opacity="1"><g transform="translate(162.350805, 259.260072)"><g><path d="M 7.015625 -14.15625 C 8.640625 -14.15625 9.875 -13.734375 10.71875 -12.890625 C 11.570312 -12.054688 12 -10.929688 12 -9.515625 L 12 -0.328125 C 12 -0.234375 11.960938 -0.15625 11.890625 -0.09375 C 11.828125 -0.03125 11.753906 0 11.671875 0 L 10.859375 0 C 10.765625 0 10.6875 -0.03125 10.625 -0.09375 C 10.5625 -0.15625 10.53125 -0.234375 10.53125 -0.328125 L 10.53125 -1.515625 C 10.53125 -1.554688 10.515625 -1.582031 10.484375 -1.59375 C 10.460938 -1.613281 10.429688 -1.609375 10.390625 -1.578125 C 9.910156 -0.984375 9.273438 -0.535156 8.484375 -0.234375 C 7.691406 0.0664062 6.84375 0.21875 5.9375 0.21875 C 4.65625 0.21875 3.578125 -0.0976562 2.703125 -0.734375 C 1.835938 -1.367188 1.40625 -2.359375 1.40625 -3.703125 C 1.40625 -5.066406 1.910156 -6.144531 2.921875 -6.9375 C 3.941406 -7.726562 5.335938 -8.125 7.109375 -8.125 L 10.421875 -8.125 C 10.492188 -8.125 10.53125 -8.160156 10.53125 -8.234375 L 10.53125 -9.484375 C 10.53125 -10.535156 10.242188 -11.359375 9.671875 -11.953125 C 9.097656 -12.554688 8.207031 -12.859375 7 -12.859375 C 6.050781 -12.859375 5.273438 -12.664062 4.671875 -12.28125 C 4.066406 -11.90625 3.6875 -11.394531 3.53125 -10.75 C 3.476562 -10.53125 3.351562 -10.4375 3.15625 -10.46875 L 2.296875 -10.59375 C 2.054688 -10.625 1.953125 -10.722656 1.984375 -10.890625 C 2.171875 -11.867188 2.710938 -12.65625 3.609375 -13.25 C 4.515625 -13.851562 5.648438 -14.15625 7.015625 -14.15625 Z M 6.21875 -1.046875 C 7.375 -1.046875 8.378906 -1.332031 9.234375 -1.90625 C 10.097656 -2.476562 10.53125 -3.269531 10.53125 -4.28125 L 10.53125 -6.796875 C 10.53125 -6.867188 10.492188 -6.90625 10.421875 -6.90625 L 7.265625 -6.90625 C 5.941406 -6.90625 4.878906 -6.628906 4.078125 -6.078125 C 3.273438 -5.523438 2.875 -4.757812 2.875 -3.78125 C 2.875 -2.882812 3.1875 -2.203125 3.8125 -1.734375 C 4.4375 -1.273438 5.238281 -1.046875 6.21875 -1.046875 Z M 6.21875 -1.046875 "/></g></g></g><g fill="#000000" fill-opacity="1"><g transform="translate(175.454213, 259.260072)"><g><path d="M 11 -19.015625 C 11 -19.109375 11.03125 -19.1875 11.09375 -19.25 C 11.15625 -19.3125 11.234375 -19.34375 11.328125 -19.34375 L 12.140625 -19.34375 C 12.222656 -19.34375 12.296875 -19.3125 12.359375 -19.25 C 12.429688 -19.1875 12.46875 -19.109375 12.46875 -19.015625 L 12.46875 -0.328125 C 12.46875 -0.234375 12.429688 -0.15625 12.359375 -0.09375 C 12.296875 -0.03125 12.222656 0 12.140625 0 L 11.328125 0 C 11.234375 0 11.15625 -0.03125 11.09375 -0.09375 C 11.03125 -0.15625 11 -0.234375 11 -0.328125 L 11 -1.625 C 11 -1.6875 10.984375 -1.71875 10.953125 -1.71875 C 10.929688 -1.726562 10.898438 -1.71875 10.859375 -1.6875 C 10.453125 -1.082031 9.929688 -0.613281 9.296875 -0.28125 C 8.660156 0.0507812 7.9375 0.21875 7.125 0.21875 C 5.875 0.21875 4.816406 -0.109375 3.953125 -0.765625 C 3.085938 -1.429688 2.5 -2.328125 2.1875 -3.453125 C 1.976562 -4.222656 1.875 -5.382812 1.875 -6.9375 C 1.875 -7.769531 1.890625 -8.453125 1.921875 -8.984375 C 1.960938 -9.515625 2.039062 -9.992188 2.15625 -10.421875 C 2.445312 -11.566406 3.03125 -12.472656 3.90625 -13.140625 C 4.78125 -13.816406 5.851562 -14.15625 7.125 -14.15625 C 7.9375 -14.15625 8.660156 -13.992188 9.296875 -13.671875 C 9.929688 -13.347656 10.453125 -12.878906 10.859375 -12.265625 C 10.878906 -12.234375 10.90625 -12.222656 10.9375 -12.234375 C 10.976562 -12.253906 11 -12.285156 11 -12.328125 Z M 10.640625 -3.671875 C 10.765625 -4.023438 10.847656 -4.421875 10.890625 -4.859375 C 10.941406 -5.304688 10.96875 -6 10.96875 -6.9375 C 10.96875 -7.914062 10.941406 -8.628906 10.890625 -9.078125 C 10.835938 -9.523438 10.742188 -9.9375 10.609375 -10.3125 C 10.429688 -11.0625 10.046875 -11.671875 9.453125 -12.140625 C 8.859375 -12.617188 8.140625 -12.859375 7.296875 -12.859375 C 6.429688 -12.859375 5.6875 -12.617188 5.0625 -12.140625 C 4.4375 -11.671875 4.007812 -11.070312 3.78125 -10.34375 C 3.613281 -9.945312 3.5 -9.53125 3.4375 -9.09375 C 3.375 -8.65625 3.34375 -7.945312 3.34375 -6.96875 C 3.34375 -6.039062 3.367188 -5.359375 3.421875 -4.921875 C 3.484375 -4.492188 3.578125 -4.078125 3.703125 -3.671875 C 3.910156 -2.898438 4.332031 -2.273438 4.96875 -1.796875 C 5.613281 -1.316406 6.390625 -1.078125 7.296875 -1.078125 C 8.160156 -1.078125 8.882812 -1.316406 9.46875 -1.796875 C 10.050781 -2.273438 10.441406 -2.898438 10.640625 -3.671875 Z M 10.640625 -3.671875 "/></g></g></g><g fill="#000000" fill-opacity="1"><g transform="translate(189.442248, 259.260072)"><g><path d="M 6.75 0.140625 C 5.75 0.140625 4.863281 -0.0195312 4.09375 -0.34375 C 3.332031 -0.664062 2.738281 -1.101562 2.3125 -1.65625 C 1.894531 -2.207031 1.6875 -2.816406 1.6875 -3.484375 L 1.6875 -3.78125 C 1.6875 -3.875 1.71875 -3.953125 1.78125 -4.015625 C 1.84375 -4.085938 1.921875 -4.125 2.015625 -4.125 L 2.796875 -4.125 C 2.890625 -4.125 2.96875 -4.09375 3.03125 -4.03125 C 3.09375 -3.976562 3.125 -3.914062 3.125 -3.84375 L 3.125 -3.53125 C 3.125 -2.875 3.457031 -2.296875 4.125 -1.796875 C 4.800781 -1.296875 5.664062 -1.046875 6.71875 -1.046875 C 7.75 -1.046875 8.59375 -1.296875 9.25 -1.796875 C 9.90625 -2.296875 10.234375 -2.914062 10.234375 -3.65625 C 10.234375 -4.164062 10.066406 -4.585938 9.734375 -4.921875 C 9.398438 -5.253906 9 -5.503906 8.53125 -5.671875 C 8.070312 -5.847656 7.394531 -6.078125 6.5 -6.359375 C 5.46875 -6.671875 4.632812 -6.960938 4 -7.234375 C 3.375 -7.515625 2.84375 -7.90625 2.40625 -8.40625 C 1.976562 -8.914062 1.765625 -9.5625 1.765625 -10.34375 C 1.765625 -11.46875 2.210938 -12.363281 3.109375 -13.03125 C 4.003906 -13.707031 5.179688 -14.046875 6.640625 -14.046875 C 7.609375 -14.046875 8.46875 -13.882812 9.21875 -13.5625 C 9.96875 -13.238281 10.546875 -12.800781 10.953125 -12.25 C 11.367188 -11.695312 11.578125 -11.066406 11.578125 -10.359375 L 11.578125 -10.34375 C 11.578125 -10.25 11.546875 -10.164062 11.484375 -10.09375 C 11.421875 -10.03125 11.34375 -10 11.25 -10 L 10.5 -10 C 10.40625 -10 10.328125 -10.015625 10.265625 -10.046875 C 10.203125 -10.085938 10.171875 -10.140625 10.171875 -10.203125 L 10.171875 -10.359375 C 10.171875 -11.066406 9.84375 -11.65625 9.1875 -12.125 C 8.53125 -12.59375 7.671875 -12.828125 6.609375 -12.828125 C 5.578125 -12.828125 4.742188 -12.609375 4.109375 -12.171875 C 3.484375 -11.742188 3.171875 -11.160156 3.171875 -10.421875 C 3.171875 -9.722656 3.460938 -9.195312 4.046875 -8.84375 C 4.628906 -8.488281 5.535156 -8.128906 6.765625 -7.765625 C 7.859375 -7.453125 8.722656 -7.160156 9.359375 -6.890625 C 9.992188 -6.628906 10.539062 -6.238281 11 -5.71875 C 11.457031 -5.207031 11.6875 -4.546875 11.6875 -3.734375 C 11.6875 -2.566406 11.234375 -1.628906 10.328125 -0.921875 C 9.429688 -0.210938 8.238281 0.140625 6.75 0.140625 Z M 6.75 0.140625 "/></g></g></g><g fill="#000000" fill-opacity="1"><g transform="translate(201.771614, 259.260072)"><g><path d="M 10.953125 -13.59375 C 10.953125 -13.6875 10.984375 -13.765625 11.046875 -13.828125 C 11.109375 -13.898438 11.1875 -13.9375 11.28125 -13.9375 L 12.046875 -13.9375 C 12.140625 -13.9375 12.21875 -13.898438 12.28125 -13.828125 C 12.351562 -13.765625 12.390625 -13.6875 12.390625 -13.59375 L 12.390625 -0.328125 C 12.390625 -0.234375 12.351562 -0.15625 12.28125 -0.09375 C 12.21875 -0.03125 12.140625 0 12.046875 0 L 11.28125 0 C 11.1875 0 11.109375 -0.03125 11.046875 -0.09375 C 10.984375 -0.15625 10.953125 -0.234375 10.953125 -0.328125 L 10.953125 -1.625 C 10.953125 -1.6875 10.929688 -1.71875 10.890625 -1.71875 C 10.847656 -1.726562 10.820312 -1.707031 10.8125 -1.65625 C 10.425781 -1.050781 9.90625 -0.59375 9.25 -0.28125 C 8.59375 0.03125 7.820312 0.1875 6.9375 0.1875 C 5.570312 0.1875 4.4375 -0.210938 3.53125 -1.015625 C 2.632812 -1.828125 2.1875 -2.945312 2.1875 -4.375 L 2.1875 -13.59375 C 2.1875 -13.6875 2.21875 -13.765625 2.28125 -13.828125 C 2.34375 -13.898438 2.421875 -13.9375 2.515625 -13.9375 L 3.296875 -13.9375 C 3.378906 -13.9375 3.453125 -13.898438 3.515625 -13.828125 C 3.585938 -13.765625 3.625 -13.6875 3.625 -13.59375 L 3.625 -4.75 C 3.625 -3.644531 3.945312 -2.757812 4.59375 -2.09375 C 5.25 -1.4375 6.125 -1.109375 7.21875 -1.109375 C 8.34375 -1.109375 9.242188 -1.441406 9.921875 -2.109375 C 10.609375 -2.785156 10.953125 -3.664062 10.953125 -4.75 Z M 10.953125 -13.59375 "/></g></g></g><g fill="#000000" fill-opacity="1"><g transform="translate(215.676717, 259.260072)"><g><path d="M 10.953125 -13.59375 C 10.953125 -13.6875 10.984375 -13.765625 11.046875 -13.828125 C 11.109375 -13.898438 11.1875 -13.9375 11.28125 -13.9375 L 12.046875 -13.9375 C 12.140625 -13.9375 12.21875 -13.898438 12.28125 -13.828125 C 12.351562 -13.765625 12.390625 -13.6875 12.390625 -13.59375 L 12.390625 -0.328125 C 12.390625 -0.234375 12.351562 -0.15625 12.28125 -0.09375 C 12.21875 -0.03125 12.140625 0 12.046875 0 L 11.28125 0 C 11.1875 0 11.109375 -0.03125 11.046875 -0.09375 C 10.984375 -0.15625 10.953125 -0.234375 10.953125 -0.328125 L 10.953125 -1.625 C 10.953125 -1.6875 10.929688 -1.71875 10.890625 -1.71875 C 10.847656 -1.726562 10.820312 -1.707031 10.8125 -1.65625 C 10.425781 -1.050781 9.90625 -0.59375 9.25 -0.28125 C 8.59375 0.03125 7.820312 0.1875 6.9375 0.1875 C 5.570312 0.1875 4.4375 -0.210938 3.53125 -1.015625 C 2.632812 -1.828125 2.1875 -2.945312 2.1875 -4.375 L 2.1875 -13.59375 C 2.1875 -13.6875 2.21875 -13.765625 2.28125 -13.828125 C 2.34375 -13.898438 2.421875 -13.9375 2.515625 -13.9375 L 3.296875 -13.9375 C 3.378906 -13.9375 3.453125 -13.898438 3.515625 -13.828125 C 3.585938 -13.765625 3.625 -13.6875 3.625 -13.59375 L 3.625 -4.75 C 3.625 -3.644531 3.945312 -2.757812 4.59375 -2.09375 C 5.25 -1.4375 6.125 -1.109375 7.21875 -1.109375 C 8.34375 -1.109375 9.242188 -1.441406 9.921875 -2.109375 C 10.609375 -2.785156 10.953125 -3.664062 10.953125 -4.75 Z M 10.953125 -13.59375 "/></g></g></g><g fill="#000000" fill-opacity="1"><g transform="translate(94.674101, 223.72566)"><g><path d="M 10.003906 0 L 20.507812 0 L 13.003906 -111.410156 C 12.878906 -113.535156 13.378906 -114.660156 14.253906 -114.660156 C 14.878906 -114.660156 15.753906 -114.035156 16.628906 -112.785156 C 47.765625 -68.773438 70.148438 -37.386719 96.65625 0 L 106.660156 0 L 106.660156 -125.039062 L 96.15625 -125.039062 L 103.65625 -13.628906 C 103.78125 -11.503906 103.28125 -10.378906 102.40625 -10.378906 C 101.78125 -10.378906 100.90625 -11.003906 100.03125 -12.253906 C 71.523438 -52.515625 45.640625 -89.027344 20.257812 -125.039062 L 10.003906 -125.039062 Z M 10.003906 0 "/></g></g></g></svg>